<?xml version="1.0" encoding="UTF-8" standalone="no"?>
<!DOCTYPE svg PUBLIC "-//W3C//DTD SVG 1.1//EN" "http://www.w3.org/Graphics/SVG/1.1/DTD/svg11.dtd">
<svg width="100%" height="100%" viewBox="0 0 807 155" version="1.1" xmlns="http://www.w3.org/2000/svg" xmlns:xlink="http://www.w3.org/1999/xlink" xml:space="preserve" xmlns:serif="http://www.serif.com/" style="fill-rule:evenodd;clip-rule:evenodd;stroke-linejoin:round;stroke-miterlimit:2;">
    <g transform="matrix(1,0,0,1,-1922.73049,-992.514139)">
        <g transform="matrix(2.494205,0,0,2.494205,-1809.326397,-655.821722)">
            <path d="M1514.958,722.866C1521.708,722.866 1525.874,720.449 1529.291,716.533L1523.541,711.533C1521.624,713.699 1519.124,715.449 1514.958,715.449C1508.708,715.449 1504.958,710.866 1504.958,704.616C1504.958,698.366 1508.708,693.783 1514.958,693.783C1518.541,693.783 1521.458,695.449 1523.124,697.866L1529.124,693.033C1525.791,688.866 1521.541,686.366 1514.958,686.366C1504.291,686.366 1496.291,694.199 1496.291,704.616C1496.291,715.116 1504.291,722.866 1514.958,722.866Z" style="fill:white;fill-rule:nonzero;"/>
            <path d="M1554.041,722.866C1543.458,722.866 1535.124,715.033 1535.124,704.616C1535.124,694.199 1543.458,686.366 1554.041,686.366C1564.708,686.366 1572.874,694.199 1572.874,704.616C1572.874,715.033 1564.708,722.866 1554.041,722.866ZM1554.041,715.616C1560.291,715.616 1564.208,711.033 1564.208,704.616C1564.208,698.199 1560.291,693.699 1554.041,693.699C1547.791,693.699 1543.791,698.199 1543.791,704.616C1543.791,711.033 1547.791,715.616 1554.041,715.616Z" style="fill:white;"/>
            <path d="M1596.541,722.866C1587.458,722.866 1580.124,715.116 1580.124,704.533C1580.124,693.949 1587.458,686.366 1596.374,686.366C1602.541,686.366 1606.208,689.199 1608.541,693.199L1608.541,661.949L1617.041,661.949L1617.041,722.116L1608.541,722.116L1608.791,715.783C1606.624,720.033 1602.374,722.866 1596.541,722.866ZM1598.708,715.449C1604.874,715.449 1608.874,711.116 1608.874,704.533C1608.874,698.199 1604.874,693.866 1598.708,693.866C1592.624,693.866 1588.791,698.199 1588.791,704.533C1588.791,711.116 1592.624,715.449 1598.708,715.449Z" style="fill:white;"/>
            <path d="M1634.541,707.449C1635.541,712.533 1639.208,715.783 1645.624,715.783C1650.208,715.783 1653.541,713.949 1655.541,712.033L1660.458,717.199C1657.208,720.449 1652.708,722.866 1645.708,722.866C1633.708,722.866 1625.958,715.116 1625.958,704.616C1625.958,694.199 1634.124,686.366 1644.624,686.366C1656.541,686.366 1663.291,695.199 1662.708,707.449L1634.541,707.449ZM1634.541,701.616L1654.208,701.616C1653.458,696.866 1650.541,693.366 1644.708,693.366C1639.291,693.366 1635.541,696.366 1634.541,701.616Z" style="fill:white;"/>
            <path d="M1674.374,722.116L1682.791,722.116L1682.791,694.199L1692.208,694.199L1692.208,687.116L1682.791,687.116L1682.791,673.199C1682.791,669.699 1684.291,668.449 1686.458,668.449C1688.458,668.449 1689.541,669.366 1690.541,670.533L1695.541,665.199C1693.291,662.449 1690.208,660.866 1685.624,660.866C1678.458,660.866 1674.374,664.866 1674.374,673.283L1674.374,687.116L1668.624,687.116L1668.624,694.199L1674.374,694.199L1674.374,722.116Z" style="fill:white;fill-rule:nonzero;"/>
            <path d="M1716.541,722.866C1705.958,722.866 1697.624,715.033 1697.624,704.616C1697.624,694.199 1705.958,686.366 1716.541,686.366C1727.208,686.366 1735.374,694.199 1735.374,704.616C1735.374,715.033 1727.208,722.866 1716.541,722.866ZM1716.541,715.616C1722.791,715.616 1726.708,711.033 1726.708,704.616C1726.708,698.199 1722.791,693.699 1716.541,693.699C1710.291,693.699 1706.291,698.199 1706.291,704.616C1706.291,711.033 1710.291,715.616 1716.541,715.616Z" style="fill:white;"/>
            <rect x="1744.624" y="661.949" width="8.417" height="60.167" style="fill:white;fill-rule:nonzero;"/>
            <path d="M1768.541,679.116C1771.541,679.116 1774.124,676.866 1774.124,673.533C1774.124,670.366 1771.541,668.033 1768.541,668.033C1765.541,668.033 1762.958,670.366 1762.958,673.533C1762.958,676.866 1765.541,679.116 1768.541,679.116Z" style="fill:white;fill-rule:nonzero;"/>
            <rect x="1764.291" y="687.116" width="8.5" height="35" style="fill:white;fill-rule:nonzero;"/>
            <path d="M1800.874,722.866C1790.291,722.866 1781.958,715.033 1781.958,704.616C1781.958,694.199 1790.291,686.366 1800.874,686.366C1811.541,686.366 1819.708,694.199 1819.708,704.616C1819.708,715.033 1811.541,722.866 1800.874,722.866ZM1800.874,715.616C1807.124,715.616 1811.041,711.033 1811.041,704.616C1811.041,698.199 1807.124,693.699 1800.874,693.699C1794.624,693.699 1790.624,698.199 1790.624,704.616C1790.624,711.033 1794.624,715.616 1800.874,715.616Z" style="fill:white;"/>
        </g>
    </g>
</svg>
