<?xml version="1.0" encoding="UTF-8" standalone="no"?>
<!DOCTYPE svg PUBLIC "-//W3C//DTD SVG 1.1//EN" "http://www.w3.org/Graphics/SVG/1.1/DTD/svg11.dtd">
<svg width="100%" height="100%" viewBox="0 0 600 600" version="1.1" xmlns="http://www.w3.org/2000/svg" xmlns:xlink="http://www.w3.org/1999/xlink" xml:space="preserve" xmlns:serif="http://www.serif.com/" style="fill-rule:evenodd;clip-rule:evenodd;stroke-linejoin:round;stroke-miterlimit:2;">
    <g transform="matrix(1,0,0,1,-1003.249385,-1258.103659)">
        <g transform="matrix(2.4,0,0,2.4,-586.568715,61.62757)">
            <g transform="matrix(1.500109,0,0,1.392427,-26.299316,-210.423664)">
                <path d="M459.116,688.693L459.116,509.151L522.445,509.151L522.445,523.514L472.448,523.514L472.448,674.33L592.439,674.33L592.439,688.693L459.116,688.693Z"/>
            </g>
            <g transform="matrix(1.500109,0,0,1.169639,203.700684,-56.990805)">
                <path d="M459.116,526.25L369.122,526.25L369.122,509.151L472.448,509.151L472.448,688.693L459.116,688.693L459.116,526.25Z"/>
            </g>
            <g transform="matrix(1.471486,0,0,1.471486,-14.972785,42.705123)">
                <path d="M525.464,437.355C509.214,437.355 496.297,425.021 496.297,408.271C496.297,391.521 509.214,379.271 525.464,379.271C535.714,379.271 543.047,382.938 548.131,390.855L539.214,397.188C536.547,392.855 531.964,389.771 525.464,389.771C515.214,389.771 508.297,397.688 508.297,408.271C508.297,418.855 515.214,426.938 525.464,426.938C532.797,426.938 536.881,423.438 540.047,418.605L549.131,424.855C544.214,432.521 536.381,437.355 525.464,437.355ZM557.797,436.605L557.797,379.938L594.297,379.938L594.297,390.188L569.464,390.188L569.464,408.938L592.047,408.938L592.047,419.355L569.464,419.355L569.464,436.605L557.797,436.605Z"/>
            </g>
        </g>
    </g>
</svg>
